<?xml version="1.0" encoding="UTF-8" standalone="no"?>
<!-- Created with Inkscape (http://www.inkscape.org/) -->

<svg
   width="114.27615mm"
   height="26.892439mm"
   viewBox="0 0 114.27615 26.892439"
   version="1.1"
   id="svg1"
   inkscape:version="1.4 (86a8ad7, 2024-10-11)"
   sodipodi:docname="logo.svg"
   xmlns:inkscape="http://www.inkscape.org/namespaces/inkscape"
   xmlns:sodipodi="http://sodipodi.sourceforge.net/DTD/sodipodi-0.dtd"
   xmlns="http://www.w3.org/2000/svg"
   xmlns:svg="http://www.w3.org/2000/svg">
  <sodipodi:namedview
     id="namedview1"
     pagecolor="#ffffff"
     bordercolor="#000000"
     borderopacity="0.25"
     inkscape:showpageshadow="2"
     inkscape:pageopacity="0.0"
     inkscape:pagecheckerboard="0"
     inkscape:deskcolor="#d1d1d1"
     inkscape:document-units="mm"
     inkscape:zoom="2.1255752"
     inkscape:cx="265.57517"
     inkscape:cy="13.408135"
     inkscape:window-width="3440"
     inkscape:window-height="1411"
     inkscape:window-x="3831"
     inkscape:window-y="283"
     inkscape:window-maximized="1"
     inkscape:current-layer="layer1" />
  <defs
     id="defs1">
    <inkscape:path-effect
       effect="fillet_chamfer"
       id="path-effect2"
       is_visible="true"
       lpeversion="1"
       nodesatellites_param="F,0,0,1,0,0,0,1 @ F,0,0,1,0,0,0,1 @ F,0,0,1,0,0,0,1 @ F,0,0,1,0,0,0,1 @ F,0,0,1,0,0,0,1 | F,0,0,1,0,0,0,1 @ F,0,0,1,0,0,0,1 @ F,0,0,1,0,0,0,1 @ F,0,0,1,0,0,0,1 @ F,0,0,1,0,0,0,1"
       radius="0"
       unit="px"
       method="auto"
       mode="F"
       chamfer_steps="1"
       flexible="false"
       use_knot_distance="true"
       apply_no_radius="true"
       apply_with_radius="true"
       only_selected="false"
       hide_knots="false" />
    <clipPath
       clipPathUnits="userSpaceOnUse"
       id="clipPath507-4">
      <path
         d="M 0,900 H 1300 V 0 H 0 Z"
         transform="translate(-625.71852,-455.29731)"
         id="path507-8" />
    </clipPath>
    <clipPath
       clipPathUnits="userSpaceOnUse"
       id="clipPath509-8">
      <path
         d="M 0,900 H 1300 V 0 H 0 Z"
         transform="translate(-660.56802,-493.03561)"
         id="path509-2" />
    </clipPath>
    <clipPath
       clipPathUnits="userSpaceOnUse"
       id="clipPath511-4">
      <path
         d="M 0,900 H 1300 V 0 H 0 Z"
         transform="translate(-698.90652,-465.76801)"
         id="path511-5" />
    </clipPath>
    <clipPath
       clipPathUnits="userSpaceOnUse"
       id="clipPath513-5">
      <path
         d="M 0,900 H 1300 V 0 H 0 Z"
         transform="translate(-708.83127,-481.03761)"
         id="path513-1" />
    </clipPath>
    <clipPath
       clipPathUnits="userSpaceOnUse"
       id="clipPath515-7">
      <path
         d="M 0,900 H 1300 V 0 H 0 Z"
         transform="translate(-749.73402,-467.40381)"
         id="path515-1" />
    </clipPath>
    <clipPath
       clipPathUnits="userSpaceOnUse"
       id="clipPath517-1">
      <path
         d="M 0,900 H 1300 V 0 H 0 Z"
         transform="translate(-772.03977,-476.40181)"
         id="path517-5" />
    </clipPath>
    <clipPath
       clipPathUnits="userSpaceOnUse"
       id="clipPath519-2">
      <path
         d="M 0,900 H 1300 V 0 H 0 Z"
         transform="translate(-629.10027,-410.21531)"
         id="path519-7" />
    </clipPath>
    <clipPath
       clipPathUnits="userSpaceOnUse"
       id="clipPath521-6">
      <path
         d="M 0,900 H 1300 V 0 H 0 Z"
         transform="translate(-672.51102,-423.14011)"
         id="path521-1" />
    </clipPath>
    <clipPath
       clipPathUnits="userSpaceOnUse"
       id="clipPath523-4">
      <path
         d="M 0,900 H 1300 V 0 H 0 Z"
         transform="translate(-683.47302,-423.84911)"
         id="path523-2" />
    </clipPath>
    <clipPath
       clipPathUnits="userSpaceOnUse"
       id="clipPath140-7">
      <path
         d="M 0,900 H 1300 V 0 H 0 Z"
         transform="translate(-515.84441,-417.55841)"
         id="path140-9" />
    </clipPath>
    <clipPath
       clipPathUnits="userSpaceOnUse"
       id="clipPath507-4-4">
      <path
         d="M 0,900 H 1300 V 0 H 0 Z"
         transform="translate(-625.71852,-455.29731)"
         id="path507-8-1" />
    </clipPath>
    <clipPath
       clipPathUnits="userSpaceOnUse"
       id="clipPath509-8-1">
      <path
         d="M 0,900 H 1300 V 0 H 0 Z"
         transform="translate(-660.56802,-493.03561)"
         id="path509-2-3" />
    </clipPath>
    <clipPath
       clipPathUnits="userSpaceOnUse"
       id="clipPath511-4-8">
      <path
         d="M 0,900 H 1300 V 0 H 0 Z"
         transform="translate(-698.90652,-465.76801)"
         id="path511-5-7" />
    </clipPath>
    <clipPath
       clipPathUnits="userSpaceOnUse"
       id="clipPath513-5-4">
      <path
         d="M 0,900 H 1300 V 0 H 0 Z"
         transform="translate(-708.83127,-481.03761)"
         id="path513-1-2" />
    </clipPath>
    <clipPath
       clipPathUnits="userSpaceOnUse"
       id="clipPath515-7-7">
      <path
         d="M 0,900 H 1300 V 0 H 0 Z"
         transform="translate(-749.73402,-467.40381)"
         id="path515-1-7" />
    </clipPath>
    <clipPath
       clipPathUnits="userSpaceOnUse"
       id="clipPath517-1-9">
      <path
         d="M 0,900 H 1300 V 0 H 0 Z"
         transform="translate(-772.03977,-476.40181)"
         id="path517-5-3" />
    </clipPath>
    <clipPath
       clipPathUnits="userSpaceOnUse"
       id="clipPath519-2-1">
      <path
         d="M 0,900 H 1300 V 0 H 0 Z"
         transform="translate(-629.10027,-410.21531)"
         id="path519-7-9" />
    </clipPath>
    <clipPath
       clipPathUnits="userSpaceOnUse"
       id="clipPath521-6-8">
      <path
         d="M 0,900 H 1300 V 0 H 0 Z"
         transform="translate(-672.51102,-423.14011)"
         id="path521-1-6" />
    </clipPath>
    <clipPath
       clipPathUnits="userSpaceOnUse"
       id="clipPath523-4-5">
      <path
         d="M 0,900 H 1300 V 0 H 0 Z"
         transform="translate(-683.47302,-423.84911)"
         id="path523-2-0" />
    </clipPath>
    <clipPath
       clipPathUnits="userSpaceOnUse"
       id="clipPath140-7-2">
      <path
         d="M 0,900 H 1300 V 0 H 0 Z"
         transform="translate(-515.84441,-417.55841)"
         id="path140-9-8" />
    </clipPath>
    <clipPath
       clipPathUnits="userSpaceOnUse"
       id="clipPath120">
      <path
         d="M 0,900 H 1300 V 0 H 0 Z"
         transform="translate(-594.60971,-432.79631)"
         id="path120" />
    </clipPath>
    <clipPath
       clipPathUnits="userSpaceOnUse"
       id="clipPath122">
      <path
         d="M 0,900 H 1300 V 0 H 0 Z"
         transform="translate(-632.61454,-437.46671)"
         id="path122" />
    </clipPath>
    <clipPath
       clipPathUnits="userSpaceOnUse"
       id="clipPath124">
      <path
         d="M 0,900 H 1300 V 0 H 0 Z"
         transform="translate(-662.98249,-455.54361)"
         id="path124" />
    </clipPath>
    <clipPath
       clipPathUnits="userSpaceOnUse"
       id="clipPath126">
      <path
         d="M 0,900 H 1300 V 0 H 0 Z"
         transform="translate(-685.32844,-447.02701)"
         id="path126" />
    </clipPath>
    <clipPath
       clipPathUnits="userSpaceOnUse"
       id="clipPath128">
      <path
         d="M 0,900 H 1300 V 0 H 0 Z"
         transform="translate(-713.62512,-449.99391)"
         id="path128" />
    </clipPath>
    <clipPath
       clipPathUnits="userSpaceOnUse"
       id="clipPath130">
      <path
         d="M 0,900 H 1300 V 0 H 0 Z"
         transform="translate(-745.01449,-436.36791)"
         id="path130" />
    </clipPath>
    <clipPath
       clipPathUnits="userSpaceOnUse"
       id="clipPath132">
      <path
         d="M 0,900 H 1300 V 0 H 0 Z"
         transform="translate(-759.53652,-435.70851)"
         id="path132" />
    </clipPath>
    <clipPath
       clipPathUnits="userSpaceOnUse"
       id="clipPath134">
      <path
         d="M 0,900 H 1300 V 0 H 0 Z"
         transform="translate(-776.55754,-436.47811)"
         id="path134" />
    </clipPath>
    <clipPath
       clipPathUnits="userSpaceOnUse"
       id="clipPath118">
      <path
         d="M 0,900 H 1300 V 0 H 0 Z"
         transform="translate(-577.97884,-437.96121)"
         id="path118" />
    </clipPath>
    <clipPath
       clipPathUnits="userSpaceOnUse"
       id="clipPath140-7-2-4">
      <path
         d="M 0,900 H 1300 V 0 H 0 Z"
         transform="translate(-515.84441,-417.55841)"
         id="path140-9-8-4" />
    </clipPath>
    <clipPath
       clipPathUnits="userSpaceOnUse"
       id="clipPath140-7-2-4-1">
      <path
         d="M 0,900 H 1300 V 0 H 0 Z"
         transform="translate(-515.84441,-417.55841)"
         id="path140-9-8-4-8" />
    </clipPath>
    <clipPath
       clipPathUnits="userSpaceOnUse"
       id="clipPath507-4-4-2">
      <path
         d="M 0,900 H 1300 V 0 H 0 Z"
         transform="translate(-625.71852,-455.29731)"
         id="path507-8-1-9" />
    </clipPath>
    <clipPath
       clipPathUnits="userSpaceOnUse"
       id="clipPath509-8-1-1">
      <path
         d="M 0,900 H 1300 V 0 H 0 Z"
         transform="translate(-660.56802,-493.03561)"
         id="path509-2-3-3" />
    </clipPath>
    <clipPath
       clipPathUnits="userSpaceOnUse"
       id="clipPath511-4-8-5">
      <path
         d="M 0,900 H 1300 V 0 H 0 Z"
         transform="translate(-698.90652,-465.76801)"
         id="path511-5-7-9" />
    </clipPath>
    <clipPath
       clipPathUnits="userSpaceOnUse"
       id="clipPath513-5-4-8">
      <path
         d="M 0,900 H 1300 V 0 H 0 Z"
         transform="translate(-708.83127,-481.03761)"
         id="path513-1-2-4" />
    </clipPath>
    <clipPath
       clipPathUnits="userSpaceOnUse"
       id="clipPath515-7-7-0">
      <path
         d="M 0,900 H 1300 V 0 H 0 Z"
         transform="translate(-749.73402,-467.40381)"
         id="path515-1-7-7" />
    </clipPath>
    <clipPath
       clipPathUnits="userSpaceOnUse"
       id="clipPath517-1-9-6">
      <path
         d="M 0,900 H 1300 V 0 H 0 Z"
         transform="translate(-772.03977,-476.40181)"
         id="path517-5-3-3" />
    </clipPath>
    <clipPath
       clipPathUnits="userSpaceOnUse"
       id="clipPath519-2-1-6">
      <path
         d="M 0,900 H 1300 V 0 H 0 Z"
         transform="translate(-629.10027,-410.21531)"
         id="path519-7-9-1" />
    </clipPath>
    <clipPath
       clipPathUnits="userSpaceOnUse"
       id="clipPath521-6-8-5">
      <path
         d="M 0,900 H 1300 V 0 H 0 Z"
         transform="translate(-672.51102,-423.14011)"
         id="path521-1-6-4" />
    </clipPath>
    <clipPath
       clipPathUnits="userSpaceOnUse"
       id="clipPath523-4-5-2">
      <path
         d="M 0,900 H 1300 V 0 H 0 Z"
         transform="translate(-683.47302,-423.84911)"
         id="path523-2-0-0" />
    </clipPath>
    <clipPath
       clipPathUnits="userSpaceOnUse"
       id="clipPath140-7-2-4-9">
      <path
         d="M 0,900 H 1300 V 0 H 0 Z"
         transform="translate(-515.84441,-417.55841)"
         id="path140-9-8-4-7" />
    </clipPath>
    <clipPath
       clipPathUnits="userSpaceOnUse"
       id="clipPath507-4-0">
      <path
         d="M 0,900 H 1300 V 0 H 0 Z"
         transform="translate(-625.71852,-455.29731)"
         id="path507-8-7" />
    </clipPath>
    <clipPath
       clipPathUnits="userSpaceOnUse"
       id="clipPath509-8-17">
      <path
         d="M 0,900 H 1300 V 0 H 0 Z"
         transform="translate(-660.56802,-493.03561)"
         id="path509-2-7" />
    </clipPath>
    <clipPath
       clipPathUnits="userSpaceOnUse"
       id="clipPath511-4-7">
      <path
         d="M 0,900 H 1300 V 0 H 0 Z"
         transform="translate(-698.90652,-465.76801)"
         id="path511-5-73" />
    </clipPath>
    <clipPath
       clipPathUnits="userSpaceOnUse"
       id="clipPath513-5-3">
      <path
         d="M 0,900 H 1300 V 0 H 0 Z"
         transform="translate(-708.83127,-481.03761)"
         id="path513-1-5" />
    </clipPath>
    <clipPath
       clipPathUnits="userSpaceOnUse"
       id="clipPath515-7-9">
      <path
         d="M 0,900 H 1300 V 0 H 0 Z"
         transform="translate(-749.73402,-467.40381)"
         id="path515-1-9" />
    </clipPath>
    <clipPath
       clipPathUnits="userSpaceOnUse"
       id="clipPath517-1-8">
      <path
         d="M 0,900 H 1300 V 0 H 0 Z"
         transform="translate(-772.03977,-476.40181)"
         id="path517-5-1" />
    </clipPath>
    <clipPath
       clipPathUnits="userSpaceOnUse"
       id="clipPath519-2-8">
      <path
         d="M 0,900 H 1300 V 0 H 0 Z"
         transform="translate(-629.10027,-410.21531)"
         id="path519-7-2" />
    </clipPath>
    <clipPath
       clipPathUnits="userSpaceOnUse"
       id="clipPath521-6-6">
      <path
         d="M 0,900 H 1300 V 0 H 0 Z"
         transform="translate(-672.51102,-423.14011)"
         id="path521-1-60" />
    </clipPath>
    <clipPath
       clipPathUnits="userSpaceOnUse"
       id="clipPath523-4-3">
      <path
         d="M 0,900 H 1300 V 0 H 0 Z"
         transform="translate(-683.47302,-423.84911)"
         id="path523-2-8" />
    </clipPath>
    <clipPath
       clipPathUnits="userSpaceOnUse"
       id="clipPath140-7-0">
      <path
         d="M 0,900 H 1300 V 0 H 0 Z"
         transform="translate(-515.84441,-417.55841)"
         id="path140-9-1" />
    </clipPath>
    <clipPath
       clipPathUnits="userSpaceOnUse"
       id="clipPath140-7-2-4-8">
      <path
         d="M 0,900 H 1300 V 0 H 0 Z"
         transform="translate(-515.84441,-417.55841)"
         id="path140-9-8-4-0" />
    </clipPath>
    <clipPath
       clipPathUnits="userSpaceOnUse"
       id="clipPath140-7-2-4-3">
      <path
         d="M 0,900 H 1300 V 0 H 0 Z"
         transform="translate(-515.84441,-417.55841)"
         id="path140-9-8-4-83" />
    </clipPath>
    <clipPath
       clipPathUnits="userSpaceOnUse"
       id="clipPath140-7-2-4-4">
      <path
         d="M 0,900 H 1300 V 0 H 0 Z"
         transform="translate(-515.84441,-417.55841)"
         id="path140-9-8-4-9" />
    </clipPath>
    <clipPath
       clipPathUnits="userSpaceOnUse"
       id="clipPath140-7-2-4-6">
      <path
         d="M 0,900 H 1300 V 0 H 0 Z"
         transform="translate(-515.84441,-417.55841)"
         id="path140-9-8-4-834" />
    </clipPath>
    <clipPath
       clipPathUnits="userSpaceOnUse"
       id="clipPath507-4-4-5">
      <path
         d="M 0,900 H 1300 V 0 H 0 Z"
         transform="translate(-625.71852,-455.29731)"
         id="path507-8-1-5" />
    </clipPath>
    <clipPath
       clipPathUnits="userSpaceOnUse"
       id="clipPath509-8-1-3">
      <path
         d="M 0,900 H 1300 V 0 H 0 Z"
         transform="translate(-660.56802,-493.03561)"
         id="path509-2-3-33" />
    </clipPath>
    <clipPath
       clipPathUnits="userSpaceOnUse"
       id="clipPath511-4-8-7">
      <path
         d="M 0,900 H 1300 V 0 H 0 Z"
         transform="translate(-698.90652,-465.76801)"
         id="path511-5-7-4" />
    </clipPath>
    <clipPath
       clipPathUnits="userSpaceOnUse"
       id="clipPath513-5-4-3">
      <path
         d="M 0,900 H 1300 V 0 H 0 Z"
         transform="translate(-708.83127,-481.03761)"
         id="path513-1-2-8" />
    </clipPath>
    <clipPath
       clipPathUnits="userSpaceOnUse"
       id="clipPath515-7-7-08">
      <path
         d="M 0,900 H 1300 V 0 H 0 Z"
         transform="translate(-749.73402,-467.40381)"
         id="path515-1-7-8" />
    </clipPath>
    <clipPath
       clipPathUnits="userSpaceOnUse"
       id="clipPath517-1-9-0">
      <path
         d="M 0,900 H 1300 V 0 H 0 Z"
         transform="translate(-772.03977,-476.40181)"
         id="path517-5-3-6" />
    </clipPath>
    <clipPath
       clipPathUnits="userSpaceOnUse"
       id="clipPath519-2-1-8">
      <path
         d="M 0,900 H 1300 V 0 H 0 Z"
         transform="translate(-629.10027,-410.21531)"
         id="path519-7-9-19" />
    </clipPath>
    <clipPath
       clipPathUnits="userSpaceOnUse"
       id="clipPath521-6-8-8">
      <path
         d="M 0,900 H 1300 V 0 H 0 Z"
         transform="translate(-672.51102,-423.14011)"
         id="path521-1-6-9" />
    </clipPath>
    <clipPath
       clipPathUnits="userSpaceOnUse"
       id="clipPath523-4-5-7">
      <path
         d="M 0,900 H 1300 V 0 H 0 Z"
         transform="translate(-683.47302,-423.84911)"
         id="path523-2-0-2" />
    </clipPath>
    <clipPath
       clipPathUnits="userSpaceOnUse"
       id="clipPath140-7-2-4-6-2">
      <path
         d="M 0,900 H 1300 V 0 H 0 Z"
         transform="translate(-515.84441,-417.55841)"
         id="path140-9-8-4-834-8" />
    </clipPath>
  </defs>
  <g
     inkscape:label="Layer 1"
     inkscape:groupmode="layer"
     id="layer1"
     transform="translate(-175.56574,-104.37157)">
    <path
       id="path506-2"
       d="M 0,0 V 6.707 C 2.781,5.289 6.544,3.98 10.471,3.872 c 1.418,0 2.781,0.108 3.926,0.436 2.782,0.654 4.472,2.072 4.472,4.199 0,3.108 -2.236,4.8 -8.235,6.926 -7.198,2.563 -11.016,5.617 -11.016,11.998 0,6.871 5.727,11.015 13.689,11.015 3.926,0 7.689,-0.981 10.034,-1.963 v -6.434 c -2.236,1.254 -5.999,2.345 -9.544,2.345 -4.471,0 -7.471,-1.855 -7.471,-4.854 0,-2.781 2.072,-4.636 8.071,-6.817 C 21.596,18.051 25.522,14.997 25.522,8.779 25.522,1.908 20.287,-2.236 11.507,-2.236 6.98,-2.236 2.727,-1.146 0,0"
       style="fill:#111113;fill-opacity:1;fill-rule:nonzero;stroke:none"
       transform="matrix(0.35277776,0,0,-0.35277776,95.947014,109.07746)"
       clip-path="url(#clipPath507-4)" />
    <path
       id="path508-1"
       d="m 0,0 v -14.343 c 0,-1.255 -0.109,-2.345 -0.109,-2.836 1.309,2.29 4.526,5.89 9.652,5.89 6.436,0 9.435,-3.872 9.435,-10.907 v -17.07 h -6.653 v 15.924 c 0,3.163 -0.764,5.999 -4.472,5.999 -4.527,0 -7.744,-3.598 -7.744,-8.398 V -39.266 H -6.544 V 0 Z"
       style="fill:#111113;fill-opacity:1;fill-rule:nonzero;stroke:none"
       transform="matrix(0.35277776,0,0,-0.35277776,108.24114,95.764212)"
       clip-path="url(#clipPath509-8)" />
    <path
       id="path510-6"
       d="m 0,0 c -7.472,1.199 -10.635,-0.928 -10.635,-4.036 0,-2.072 1.473,-3.49 3.763,-3.49 C -2.945,-7.526 0,-3.817 0,0 m -15.106,14.015 c 1.526,0.818 5.18,1.964 9.816,1.964 8.071,0 12.052,-3.873 12.052,-10.69 V -11.998 H 0.709 L 0.6,-9.162 C 0.545,-7.908 0.709,-7.09 0.709,-7.09 H 0.6 c -0.492,-1.2 -3.381,-5.617 -8.944,-5.617 -4.854,0 -8.671,2.891 -8.671,8.126 0,6.708 6.598,9.979 17.178,8.507 v 1.036 c 0,3.981 -2.509,5.345 -6.489,5.345 -3.6,0 -7.035,-1.2 -8.78,-2.29 z"
       style="fill:#111113;fill-opacity:1;fill-rule:nonzero;stroke:none"
       transform="matrix(0.35277776,0,0,-0.35277776,121.76611,105.38364)"
       clip-path="url(#clipPath511-4)" />
    <path
       id="path512-8"
       d="m 0,0 h 6.108 c 0.055,-1.091 0.109,-2.182 0.109,-3.218 0,-0.927 -0.054,-1.69 0,-1.908 1.691,3.326 4.526,5.835 8.29,5.835 0.817,0 1.526,-0.109 1.69,-0.164 V -5.89 c -0.164,0 -0.763,0.218 -1.635,0.218 -4.691,0 -7.909,-4.744 -7.909,-9.871 V -27.268 H 0 Z"
       style="fill:#111113;fill-opacity:1;fill-rule:nonzero;stroke:none"
       transform="matrix(0.35277776,0,0,-0.35277776,125.26735,99.996857)"
       clip-path="url(#clipPath513-5)" />
    <path
       id="path514-5"
       d="m 0,0 c 0,5.071 -3.054,8.671 -7.472,8.671 -3.653,0 -7.525,-2.781 -7.525,-8.671 0,-5.89 3.872,-8.671 7.525,-8.671 C -3.054,-8.671 0,-5.126 0,0 m -21.814,13.634 h 6.108 l 0.109,-2.564 c 0.054,-1.145 -0.164,-1.908 -0.109,-1.908 h 0.109 c 1.309,2.727 5.017,5.181 9.216,5.181 7.145,0 12.707,-5.672 12.707,-14.343 0,-8.78 -5.562,-14.343 -12.543,-14.343 -4.199,0 -7.581,2.237 -8.999,4.744 h -0.108 c 0,0 0.163,-0.762 0.163,-2.235 v -13.798 h -6.653 z"
       style="fill:#111113;fill-opacity:1;fill-rule:nonzero;stroke:none"
       transform="matrix(0.35277776,0,0,-0.35277776,139.69693,104.80656)"
       clip-path="url(#clipPath515-7)" />
    <path
       id="path516-7"
       d="M 0,0 C -3.927,0 -6.271,-3.054 -6.599,-6.489 H 6.162 C 6.217,-3.054 4.09,0 0,0 m 12.598,-7.417 c 0,-1.254 -0.164,-2.454 -0.164,-2.944 H -6.599 c 0.163,-4.581 3.436,-7.308 8.453,-7.308 3.818,0 7.798,1.145 9.653,2.29 v -5.835 c -1.908,-1.036 -5.563,-2.127 -10.144,-2.127 -9.052,0 -14.887,5.945 -14.887,14.343 0,8.234 5.944,14.343 13.633,14.343 8.18,0 12.489,-5.999 12.489,-12.762"
       style="fill:#111113;fill-opacity:1;fill-rule:nonzero;stroke:none"
       transform="matrix(0.35277776,0,0,-0.35277776,147.5659,101.63227)"
       clip-path="url(#clipPath517-1)" />
    <path
       id="path518-6"
       d="M 0,0 V 39.266 H 3.163 V 2.672 H 20.832 V 0 Z"
       style="fill:#111113;fill-opacity:1;fill-rule:nonzero;stroke:none"
       transform="matrix(0.35277776,0,0,-0.35277776,97.14002,124.98138)"
       clip-path="url(#clipPath519-2)" />
    <path
       id="path520-1"
       d="m 0,0 c -9.762,1.581 -15.542,-1.036 -15.542,-5.944 0,-2.891 2.181,-4.909 5.617,-4.909 C -4.199,-10.853 0,-5.181 0,0 m -16.96,12.925 c 1.526,0.818 5.017,2.072 9.271,2.072 C -0.437,14.997 3,11.452 3,4.636 V -12.925 H 0.109 v 3.708 c -0.054,1.418 0.163,2.4 0.163,2.4 H 0.164 c 0,-0.218 -3.382,-6.762 -10.416,-6.762 -5.018,0 -8.399,3.054 -8.399,7.471 0,6.872 7.417,10.253 18.651,8.562 v 2.072 c 0,5.727 -3.163,7.69 -7.962,7.69 -4.036,0 -7.58,-1.418 -8.998,-2.29 z"
       style="fill:#111113;fill-opacity:1;fill-rule:nonzero;stroke:none"
       transform="matrix(0.35277776,0,0,-0.35277776,112.45437,120.42182)"
       clip-path="url(#clipPath521-6)" />
    <path
       id="path522-8"
       d="m 0,0 c 0,-8.017 5.235,-11.507 9.871,-11.507 5.944,0 9.761,5.018 9.761,11.507 0,6.653 -3.817,11.507 -9.761,11.507 C 5.235,11.507 0,8.017 0,0 M -3,25.632 H 0 V 10.253 C 0,8.998 -0.164,8.071 -0.164,8.071 h 0.109 c 1.528,3.163 5.454,6.217 10.144,6.217 7.253,0 12.597,-5.999 12.597,-14.288 0,-8.126 -5.344,-14.288 -12.597,-14.288 -4.745,0 -8.726,3.163 -10.198,6.434 h -0.109 c 0,0 0.163,-0.872 0.163,-2.125 l -0.054,-3.655 H -3 Z"
       style="fill:#111113;fill-opacity:1;fill-rule:nonzero;stroke:none"
       transform="matrix(0.35277776,0,0,-0.35277776,116.32152,120.17168)"
       clip-path="url(#clipPath523-4)" />
    <path
       id="path763"
       style="fill:none;stroke:#000000;stroke-width:1.05833;stroke-dasharray:none"
       d="m 87.103555,101.60068 3.579786,2.07108 v 13.12466 l -11.342714,6.5623 -1.169935,-0.67686 m -6.06552,-3.50922 -4.107259,-2.37622 v -13.12466 l 11.342714,-6.562301 2.187495,1.265555"
       sodipodi:nodetypes="cccccccccc" />
    <path
       id="path139-4"
       d="m 0,0 c 2.694,0.645 5.511,1.893 8.118,4.55 1.356,1.382 2.655,3.146 3.851,5.405 0.606,1.143 1.185,2.413 1.731,3.825 6.497,16.789 25.202,10.358 25.202,10.358 C 35.665,24.058 32.161,23.296 28.875,18.857 27.946,17.602 27.033,16.052 26.149,14.141 25.787,13.358 25.43,12.515 25.079,11.605 19.062,-3.944 2.424,-0.581 0,0"
       style="fill:#a30d0e;fill-opacity:1;fill-rule:nonzero;stroke:#000000;stroke-width:0.441725;stroke-opacity:1"
       transform="matrix(0.75240869,-0.26777161,-0.26777161,-0.75240869,68.34621,125.29991)"
       clip-path="url(#clipPath140-7)" />
    <path
       id="path506-2-5"
       d="M 0,0 V 6.707 C 2.781,5.289 6.544,3.98 10.471,3.872 c 1.418,0 2.781,0.108 3.926,0.436 2.782,0.654 4.472,2.072 4.472,4.199 0,3.108 -2.236,4.8 -8.235,6.926 -7.198,2.563 -11.016,5.617 -11.016,11.998 0,6.871 5.727,11.015 13.689,11.015 3.926,0 7.689,-0.981 10.034,-1.963 v -6.434 c -2.236,1.254 -5.999,2.345 -9.544,2.345 -4.471,0 -7.471,-1.855 -7.471,-4.854 0,-2.781 2.072,-4.636 8.071,-6.817 C 21.596,18.051 25.522,14.997 25.522,8.779 25.522,1.908 20.287,-2.236 11.507,-2.236 6.98,-2.236 2.727,-1.146 0,0"
       style="fill:#111113;fill-opacity:1;fill-rule:nonzero;stroke:none"
       transform="matrix(0.35277776,0,0,-0.35277776,390.69284,117.27954)"
       clip-path="url(#clipPath507-4-0)" />
    <path
       id="path508-1-0"
       d="m 0,0 v -14.343 c 0,-1.255 -0.109,-2.345 -0.109,-2.836 1.309,2.29 4.526,5.89 9.652,5.89 6.436,0 9.435,-3.872 9.435,-10.907 v -17.07 h -6.653 v 15.924 c 0,3.163 -0.764,5.999 -4.472,5.999 -4.527,0 -7.744,-3.598 -7.744,-8.398 V -39.266 H -6.544 V 0 Z"
       style="fill:#111113;fill-opacity:1;fill-rule:nonzero;stroke:none"
       transform="matrix(0.35277776,0,0,-0.35277776,402.98697,103.9663)"
       clip-path="url(#clipPath509-8-17)" />
    <path
       id="path510-6-9"
       d="m 0,0 c -7.472,1.199 -10.635,-0.928 -10.635,-4.036 0,-2.072 1.473,-3.49 3.763,-3.49 C -2.945,-7.526 0,-3.817 0,0 m -15.106,14.015 c 1.526,0.818 5.18,1.964 9.816,1.964 8.071,0 12.052,-3.873 12.052,-10.69 V -11.998 H 0.709 L 0.6,-9.162 C 0.545,-7.908 0.709,-7.09 0.709,-7.09 H 0.6 c -0.492,-1.2 -3.381,-5.617 -8.944,-5.617 -4.854,0 -8.671,2.891 -8.671,8.126 0,6.708 6.598,9.979 17.178,8.507 v 1.036 c 0,3.981 -2.509,5.345 -6.489,5.345 -3.6,0 -7.035,-1.2 -8.78,-2.29 z"
       style="fill:#111113;fill-opacity:1;fill-rule:nonzero;stroke:none"
       transform="matrix(0.35277776,0,0,-0.35277776,416.51194,113.58572)"
       clip-path="url(#clipPath511-4-7)" />
    <path
       id="path512-8-4"
       d="m 0,0 h 6.108 c 0.055,-1.091 0.109,-2.182 0.109,-3.218 0,-0.927 -0.054,-1.69 0,-1.908 1.691,3.326 4.526,5.835 8.29,5.835 0.817,0 1.526,-0.109 1.69,-0.164 V -5.89 c -0.164,0 -0.763,0.218 -1.635,0.218 -4.691,0 -7.909,-4.744 -7.909,-9.871 V -27.268 H 0 Z"
       style="fill:#111113;fill-opacity:1;fill-rule:nonzero;stroke:none"
       transform="matrix(0.35277776,0,0,-0.35277776,420.01318,108.19894)"
       clip-path="url(#clipPath513-5-3)" />
    <path
       id="path514-5-7"
       d="m 0,0 c 0,5.071 -3.054,8.671 -7.472,8.671 -3.653,0 -7.525,-2.781 -7.525,-8.671 0,-5.89 3.872,-8.671 7.525,-8.671 C -3.054,-8.671 0,-5.126 0,0 m -21.814,13.634 h 6.108 l 0.109,-2.564 c 0.054,-1.145 -0.164,-1.908 -0.109,-1.908 h 0.109 c 1.309,2.727 5.017,5.181 9.216,5.181 7.145,0 12.707,-5.672 12.707,-14.343 0,-8.78 -5.562,-14.343 -12.543,-14.343 -4.199,0 -7.581,2.237 -8.999,4.744 h -0.108 c 0,0 0.163,-0.762 0.163,-2.235 v -13.798 h -6.653 z"
       style="fill:#111113;fill-opacity:1;fill-rule:nonzero;stroke:none"
       transform="matrix(0.35277776,0,0,-0.35277776,434.44276,113.00864)"
       clip-path="url(#clipPath515-7-9)" />
    <path
       id="path516-7-8"
       d="M 0,0 C -3.927,0 -6.271,-3.054 -6.599,-6.489 H 6.162 C 6.217,-3.054 4.09,0 0,0 m 12.598,-7.417 c 0,-1.254 -0.164,-2.454 -0.164,-2.944 H -6.599 c 0.163,-4.581 3.436,-7.308 8.453,-7.308 3.818,0 7.798,1.145 9.653,2.29 v -5.835 c -1.908,-1.036 -5.563,-2.127 -10.144,-2.127 -9.052,0 -14.887,5.945 -14.887,14.343 0,8.234 5.944,14.343 13.633,14.343 8.18,0 12.489,-5.999 12.489,-12.762"
       style="fill:#111113;fill-opacity:1;fill-rule:nonzero;stroke:none"
       transform="matrix(0.35277776,0,0,-0.35277776,442.31173,109.83435)"
       clip-path="url(#clipPath517-1-8)" />
    <path
       id="path518-6-3"
       d="M 0,0 V 39.266 H 3.163 V 2.672 H 20.832 V 0 Z"
       style="fill:#111113;fill-opacity:1;fill-rule:nonzero;stroke:none"
       transform="matrix(0.35277776,0,0,-0.35277776,391.88585,133.18346)"
       clip-path="url(#clipPath519-2-8)" />
    <path
       id="path520-1-5"
       d="m 0,0 c -9.762,1.581 -15.542,-1.036 -15.542,-5.944 0,-2.891 2.181,-4.909 5.617,-4.909 C -4.199,-10.853 0,-5.181 0,0 m -16.96,12.925 c 1.526,0.818 5.017,2.072 9.271,2.072 C -0.437,14.997 3,11.452 3,4.636 V -12.925 H 0.109 v 3.708 c -0.054,1.418 0.163,2.4 0.163,2.4 H 0.164 c 0,-0.218 -3.382,-6.762 -10.416,-6.762 -5.018,0 -8.399,3.054 -8.399,7.471 0,6.872 7.417,10.253 18.651,8.562 v 2.072 c 0,5.727 -3.163,7.69 -7.962,7.69 -4.036,0 -7.58,-1.418 -8.998,-2.29 z"
       style="fill:#111113;fill-opacity:1;fill-rule:nonzero;stroke:none"
       transform="matrix(0.35277776,0,0,-0.35277776,407.2002,128.6239)"
       clip-path="url(#clipPath521-6-6)" />
    <path
       id="path522-8-1"
       d="m 0,0 c 0,-8.017 5.235,-11.507 9.871,-11.507 5.944,0 9.761,5.018 9.761,11.507 0,6.653 -3.817,11.507 -9.761,11.507 C 5.235,11.507 0,8.017 0,0 M -3,25.632 H 0 V 10.253 C 0,8.998 -0.164,8.071 -0.164,8.071 h 0.109 c 1.528,3.163 5.454,6.217 10.144,6.217 7.253,0 12.597,-5.999 12.597,-14.288 0,-8.126 -5.344,-14.288 -12.597,-14.288 -4.745,0 -8.726,3.163 -10.198,6.434 h -0.109 c 0,0 0.163,-0.872 0.163,-2.125 l -0.054,-3.655 H -3 Z"
       style="fill:#111113;fill-opacity:1;fill-rule:nonzero;stroke:none"
       transform="matrix(0.35277776,0,0,-0.35277776,411.06735,128.37376)"
       clip-path="url(#clipPath523-4-3)" />
    <path
       id="path506-2-0"
       d="M 0,0 V 6.707 C 2.781,5.289 6.544,3.98 10.471,3.872 c 1.418,0 2.781,0.108 3.926,0.436 2.782,0.654 4.472,2.072 4.472,4.199 0,3.108 -2.236,4.8 -8.235,6.926 -7.198,2.563 -11.016,5.617 -11.016,11.998 0,6.871 5.727,11.015 13.689,11.015 3.926,0 7.689,-0.981 10.034,-1.963 v -6.434 c -2.236,1.254 -5.999,2.345 -9.544,2.345 -4.471,0 -7.471,-1.855 -7.471,-4.854 0,-2.781 2.072,-4.636 8.071,-6.817 C 21.596,18.051 25.522,14.997 25.522,8.779 25.522,1.908 20.287,-2.236 11.507,-2.236 6.98,-2.236 2.727,-1.146 0,0"
       style="fill:#111113;fill-opacity:1;fill-rule:nonzero;stroke:none"
       transform="matrix(0.35277776,0,0,-0.35277776,204.16462,124.21577)"
       clip-path="url(#clipPath507-4-4)" />
    <path
       id="path508-1-2"
       d="m 0,0 v -14.343 c 0,-1.255 -0.109,-2.345 -0.109,-2.836 1.309,2.29 4.526,5.89 9.652,5.89 6.436,0 9.435,-3.872 9.435,-10.907 v -17.07 h -6.653 v 15.924 c 0,3.163 -0.764,5.999 -4.472,5.999 -4.527,0 -7.744,-3.598 -7.744,-8.398 V -39.266 H -6.544 V 0 Z"
       style="fill:#111113;fill-opacity:1;fill-rule:nonzero;stroke:none"
       transform="matrix(0.35277776,0,0,-0.35277776,216.45875,110.90252)"
       clip-path="url(#clipPath509-8-1)" />
    <path
       id="path510-6-4"
       d="m 0,0 c -7.472,1.199 -10.635,-0.928 -10.635,-4.036 0,-2.072 1.473,-3.49 3.763,-3.49 C -2.945,-7.526 0,-3.817 0,0 m -15.106,14.015 c 1.526,0.818 5.18,1.964 9.816,1.964 8.071,0 12.052,-3.873 12.052,-10.69 V -11.998 H 0.709 L 0.6,-9.162 C 0.545,-7.908 0.709,-7.09 0.709,-7.09 H 0.6 c -0.492,-1.2 -3.381,-5.617 -8.944,-5.617 -4.854,0 -8.671,2.891 -8.671,8.126 0,6.708 6.598,9.979 17.178,8.507 v 1.036 c 0,3.981 -2.509,5.345 -6.489,5.345 -3.6,0 -7.035,-1.2 -8.78,-2.29 z"
       style="fill:#111113;fill-opacity:1;fill-rule:nonzero;stroke:none"
       transform="matrix(0.35277776,0,0,-0.35277776,229.98372,120.52195)"
       clip-path="url(#clipPath511-4-8)" />
    <path
       id="path512-8-8"
       d="m 0,0 h 6.108 c 0.055,-1.091 0.109,-2.182 0.109,-3.218 0,-0.927 -0.054,-1.69 0,-1.908 1.691,3.326 4.526,5.835 8.29,5.835 0.817,0 1.526,-0.109 1.69,-0.164 V -5.89 c -0.164,0 -0.763,0.218 -1.635,0.218 -4.691,0 -7.909,-4.744 -7.909,-9.871 V -27.268 H 0 Z"
       style="fill:#111113;fill-opacity:1;fill-rule:nonzero;stroke:none"
       transform="matrix(0.35277776,0,0,-0.35277776,233.48496,115.13517)"
       clip-path="url(#clipPath513-5-4)" />
    <path
       id="path514-5-6"
       d="m 0,0 c 0,5.071 -3.054,8.671 -7.472,8.671 -3.653,0 -7.525,-2.781 -7.525,-8.671 0,-5.89 3.872,-8.671 7.525,-8.671 C -3.054,-8.671 0,-5.126 0,0 m -21.814,13.634 h 6.108 l 0.109,-2.564 c 0.054,-1.145 -0.164,-1.908 -0.109,-1.908 h 0.109 c 1.309,2.727 5.017,5.181 9.216,5.181 7.145,0 12.707,-5.672 12.707,-14.343 0,-8.78 -5.562,-14.343 -12.543,-14.343 -4.199,0 -7.581,2.237 -8.999,4.744 h -0.108 c 0,0 0.163,-0.762 0.163,-2.235 v -13.798 h -6.653 z"
       style="fill:#111113;fill-opacity:1;fill-rule:nonzero;stroke:none"
       transform="matrix(0.35277776,0,0,-0.35277776,247.91454,119.94487)"
       clip-path="url(#clipPath515-7-7)" />
    <path
       id="path516-7-5"
       d="M 0,0 C -3.927,0 -6.271,-3.054 -6.599,-6.489 H 6.162 C 6.217,-3.054 4.09,0 0,0 m 12.598,-7.417 c 0,-1.254 -0.164,-2.454 -0.164,-2.944 H -6.599 c 0.163,-4.581 3.436,-7.308 8.453,-7.308 3.818,0 7.798,1.145 9.653,2.29 v -5.835 c -1.908,-1.036 -5.563,-2.127 -10.144,-2.127 -9.052,0 -14.887,5.945 -14.887,14.343 0,8.234 5.944,14.343 13.633,14.343 8.18,0 12.489,-5.999 12.489,-12.762"
       style="fill:#111113;fill-opacity:1;fill-rule:nonzero;stroke:none"
       transform="matrix(0.35277776,0,0,-0.35277776,255.78351,116.77058)"
       clip-path="url(#clipPath517-1-9)" />
    <path
       id="path518-6-0"
       d="M 0,0 V 39.266 H 3.163 V 2.672 H 20.832 V 0 Z"
       style="fill:#111113;fill-opacity:1;fill-rule:nonzero;stroke:none;stroke-width:1.00063;stroke-dasharray:none"
       transform="matrix(0.35277776,0,0,-0.35277776,262.65728,125.00505)"
       clip-path="url(#clipPath519-2-1)" />
    <path
       id="path520-1-9"
       d="m 0,0 c -9.762,1.581 -15.542,-1.036 -15.542,-5.944 0,-2.891 2.181,-4.909 5.617,-4.909 C -4.199,-10.853 0,-5.181 0,0 m -16.96,12.925 c 1.526,0.818 5.017,2.072 9.271,2.072 C -0.437,14.997 3,11.452 3,4.636 V -12.925 H 0.109 v 3.708 c -0.054,1.418 0.163,2.4 0.163,2.4 H 0.164 c 0,-0.218 -3.382,-6.762 -10.416,-6.762 -5.018,0 -8.399,3.054 -8.399,7.471 0,6.872 7.417,10.253 18.651,8.562 v 2.072 c 0,5.727 -3.163,7.69 -7.962,7.69 -4.036,0 -7.58,-1.418 -8.998,-2.29 z"
       style="fill:#111113;fill-opacity:1;fill-rule:nonzero;stroke:none"
       transform="matrix(0.35277776,0,0,-0.35277776,277.97163,120.44549)"
       clip-path="url(#clipPath521-6-8)" />
    <path
       id="path522-8-0"
       d="m 0,0 c 0,-8.017 5.235,-11.507 9.871,-11.507 5.944,0 9.761,5.018 9.761,11.507 0,6.653 -3.817,11.507 -9.761,11.507 C 5.235,11.507 0,8.017 0,0 M -3,25.632 H 0 V 10.253 C 0,8.998 -0.164,8.071 -0.164,8.071 h 0.109 c 1.528,3.163 5.454,6.217 10.144,6.217 7.253,0 12.597,-5.999 12.597,-14.288 0,-8.126 -5.344,-14.288 -12.597,-14.288 -4.745,0 -8.726,3.163 -10.198,6.434 h -0.109 c 0,0 0.163,-0.872 0.163,-2.125 l -0.054,-3.655 H -3 Z"
       style="fill:#111113;fill-opacity:1;fill-rule:nonzero;stroke:none"
       transform="matrix(0.35277776,0,0,-0.35277776,281.83878,120.19535)"
       clip-path="url(#clipPath523-4-5)" />
    <path
       id="path763-0"
       style="fill:none;stroke:#000000;stroke-width:1.658;stroke-dasharray:none"
       d="m 149.01605,150.28401 3.57979,2.07108 v 13.12466 l -11.34271,6.5623 -1.16994,-0.67686 m -6.06552,-3.50922 -4.10726,-2.37622 v -13.12466 l 11.34272,-6.5623 2.18749,1.26556"
       sodipodi:nodetypes="cccccccccc"
       inkscape:path-effect="#path-effect2"
       inkscape:original-d="m 149.01605,150.28401 3.57979,2.07108 v 13.12466 l -11.34271,6.5623 -1.16994,-0.67686 m -6.06552,-3.50922 -4.10726,-2.37622 v -13.12466 l 11.34272,-6.5623 2.18749,1.26556"
       transform="translate(113.02431,-103.06622)" />
    <path
       id="path139-4-6"
       d="m 0,0 c 2.694,0.645 5.511,1.893 8.118,4.55 1.356,1.382 2.655,3.146 3.851,5.405 0.606,1.143 1.185,2.413 1.731,3.825 6.497,16.789 25.202,10.358 25.202,10.358 C 35.665,24.058 32.161,23.296 28.875,18.857 27.946,17.602 27.033,16.052 26.149,14.141 25.787,13.358 25.43,12.515 25.079,11.605 19.062,-3.944 2.424,-0.581 0,0"
       style="fill:#a30d0e;fill-opacity:1;fill-rule:nonzero;stroke:#000000;stroke-width:0.817643;stroke-dasharray:none;stroke-opacity:1"
       transform="matrix(0.75240869,-0.26777161,-0.26777161,-0.75240869,243.28301,70.917022)"
       clip-path="url(#clipPath140-7-2)" />
    <path
       id="path117"
       d="M 0,0 C 2.49,0 4.304,0.421 5.44,1.264 6.574,2.106 7.143,3.297 7.143,4.835 7.143,5.75 6.95,6.538 6.565,7.198 6.181,7.857 5.632,8.452 4.917,8.983 c -0.714,0.531 -1.585,1.026 -2.61,1.484 -1.025,0.458 -2.197,0.906 -3.516,1.346 -1.319,0.475 -2.592,0.998 -3.819,1.566 -1.227,0.568 -2.307,1.272 -3.242,2.115 -0.934,0.843 -1.685,1.85 -2.252,3.022 -0.568,1.172 -0.852,2.582 -0.852,4.231 0,3.442 1.19,6.144 3.571,8.104 2.381,1.96 5.623,2.94 9.726,2.94 2.381,0 4.496,-0.266 6.346,-0.797 1.849,-0.531 3.305,-1.108 4.368,-1.731 l -2.143,-5.604 c -1.245,0.695 -2.61,1.227 -4.093,1.593 -1.484,0.366 -3.013,0.55 -4.588,0.55 -1.868,0 -3.324,-0.385 -4.368,-1.154 -1.044,-0.769 -1.566,-1.85 -1.566,-3.242 0,-0.843 0.173,-1.566 0.522,-2.17 0.347,-0.605 0.842,-1.145 1.484,-1.621 0.64,-0.476 1.391,-0.916 2.252,-1.319 0.86,-0.403 1.804,-0.788 2.83,-1.154 1.794,-0.659 3.397,-1.327 4.808,-2.005 1.409,-0.678 2.6,-1.483 3.571,-2.417 0.97,-0.934 1.712,-2.033 2.225,-3.297 0.513,-1.264 0.77,-2.794 0.77,-4.588 0,-3.444 -1.219,-6.108 -3.654,-7.995 C 8.25,-5.046 4.688,-5.989 0,-5.989 c -1.575,0 -3.014,0.101 -4.313,0.302 -1.301,0.202 -2.455,0.449 -3.462,0.742 -1.008,0.293 -1.878,0.595 -2.61,0.906 -0.733,0.311 -1.318,0.596 -1.758,0.852 l 2.033,5.659 C -9.121,1.923 -7.784,1.373 -6.099,0.824 -4.415,0.275 -2.382,0 0,0"
       style="fill:#111113;fill-opacity:1;fill-rule:nonzero;stroke:none"
       transform="matrix(0.35277776,0,0,-0.35277776,167.26711,188.39781)"
       clip-path="url(#clipPath118)" />
    <path
       id="path119"
       d="m 0,0 v 37.857 l 6.649,1.099 v -10.55 c 0.732,0.256 1.583,0.476 2.554,0.66 0.97,0.183 1.932,0.274 2.885,0.274 2.308,0 4.222,-0.321 5.742,-0.961 1.519,-0.641 2.738,-1.538 3.654,-2.692 0.915,-1.154 1.565,-2.537 1.95,-4.149 0.385,-1.612 0.577,-3.406 0.577,-5.384 V 0 h -6.648 v 15.11 c 0,1.538 -0.102,2.848 -0.302,3.928 -0.202,1.08 -0.532,1.959 -0.989,2.638 -0.459,0.677 -1.072,1.171 -1.841,1.483 -0.769,0.311 -1.722,0.467 -2.857,0.467 -0.879,0 -1.777,-0.092 -2.693,-0.274 C 7.765,23.168 7.088,23.003 6.649,22.857 V 0 Z"
       style="fill:#111113;fill-opacity:1;fill-rule:nonzero;stroke:none"
       transform="matrix(0.35277776,0,0,-0.35277776,173.13411,190.21987)"
       clip-path="url(#clipPath120)" />
    <path
       id="path121"
       d="M 0,0 C 2.051,0 3.607,0.11 4.67,0.33 V 7.692 C 4.304,7.802 3.772,7.912 3.077,8.022 2.381,8.132 1.611,8.186 0.769,8.186 0.036,8.186 -0.706,8.132 -1.456,8.022 -2.207,7.912 -2.885,7.71 -3.489,7.417 -4.093,7.124 -4.579,6.712 -4.945,6.181 -5.311,5.65 -5.494,4.981 -5.494,4.176 -5.494,2.6 -5,1.511 -4.011,0.906 -3.022,0.302 -1.685,0 0,0 m -0.549,24.78 c 2.197,0 4.047,-0.275 5.549,-0.824 1.502,-0.55 2.701,-1.319 3.599,-2.308 0.897,-0.989 1.539,-2.189 1.923,-3.599 0.385,-1.41 0.577,-2.958 0.577,-4.643 V -4.011 c -1.026,-0.22 -2.574,-0.486 -4.643,-0.797 -2.07,-0.311 -4.405,-0.467 -7.005,-0.467 -1.723,0 -3.297,0.165 -4.726,0.495 -1.428,0.33 -2.646,0.86 -3.653,1.593 -1.008,0.732 -1.795,1.685 -2.363,2.857 -0.568,1.172 -0.852,2.619 -0.852,4.341 0,1.648 0.321,3.04 0.962,4.175 0.64,1.136 1.511,2.061 2.61,2.775 1.099,0.715 2.371,1.227 3.818,1.539 1.447,0.311 2.958,0.467 4.534,0.467 0.732,0 1.501,-0.047 2.307,-0.138 0.805,-0.092 1.666,-0.247 2.582,-0.467 v 1.099 c 0,0.77 -0.091,1.502 -0.274,2.198 -0.184,0.696 -0.504,1.309 -0.962,1.841 -0.458,0.53 -1.063,0.942 -1.813,1.236 -0.751,0.293 -1.695,0.44 -2.83,0.44 -1.538,0 -2.948,-0.11 -4.231,-0.33 -1.282,-0.22 -2.326,-0.477 -3.131,-0.769 l -0.824,5.384 c 0.842,0.293 2.069,0.586 3.681,0.879 1.611,0.293 3.333,0.44 5.165,0.44"
       style="fill:#111113;fill-opacity:1;fill-rule:nonzero;stroke:none"
       transform="matrix(0.35277776,0,0,-0.35277776,186.54137,188.57226)"
       clip-path="url(#clipPath122)" />
    <path
       id="path123"
       d="m 0,0 c -0.55,0.183 -1.31,0.375 -2.28,0.577 -0.971,0.2 -2.097,0.302 -3.379,0.302 -0.733,0 -1.511,-0.074 -2.336,-0.22 -0.824,-0.147 -1.4,-0.275 -1.73,-0.384 v -23.022 h -6.649 V 4.615 c 1.282,0.476 2.885,0.925 4.808,1.346 1.923,0.421 4.056,0.632 6.401,0.632 0.44,0 0.952,-0.027 1.539,-0.082 0.585,-0.055 1.172,-0.129 1.758,-0.22 0.586,-0.092 1.154,-0.202 1.703,-0.33 0.55,-0.128 0.989,-0.247 1.319,-0.357 z"
       style="fill:#111113;fill-opacity:1;fill-rule:nonzero;stroke:none"
       transform="matrix(0.35277776,0,0,-0.35277776,197.25451,182.19513)"
       clip-path="url(#clipPath124)" />
    <path
       id="path125"
       d="m 0,0 c 0,2.967 -0.669,5.275 -2.005,6.923 -1.338,1.648 -3.49,2.472 -6.456,2.472 -0.624,0 -1.274,-0.027 -1.951,-0.082 -0.678,-0.055 -1.346,-0.174 -2.005,-0.357 V -7.472 c 0.585,-0.404 1.364,-0.779 2.335,-1.127 0.97,-0.348 2.005,-0.522 3.104,-0.522 2.418,0 4.184,0.824 5.302,2.473 C -0.559,-5 0,-2.784 0,0 m 6.813,0.11 c 0,-2.198 -0.284,-4.213 -0.851,-6.044 -0.569,-1.832 -1.383,-3.407 -2.446,-4.725 -1.063,-1.319 -2.39,-2.345 -3.983,-3.077 -1.593,-0.733 -3.398,-1.099 -5.412,-1.099 -1.355,0 -2.601,0.165 -3.736,0.494 -1.136,0.33 -2.07,0.696 -2.802,1.099 V -23.5 h -6.649 v 37.071 c 1.355,0.366 3.022,0.714 5,1.044 1.978,0.33 4.066,0.495 6.264,0.495 2.271,0 4.303,-0.349 6.099,-1.044 C 0.091,13.369 1.621,12.371 2.885,11.072 4.148,9.771 5.119,8.195 5.797,6.346 6.474,4.496 6.813,2.418 6.813,0.11"
       style="fill:#111113;fill-opacity:1;fill-rule:nonzero;stroke:none"
       transform="matrix(0.35277776,0,0,-0.35277776,205.13766,185.1996)"
       clip-path="url(#clipPath126)" />
    <path
       id="path127"
       d="M 0,0 C 0,0.915 -0.129,1.786 -0.385,2.61 -0.641,3.434 -1.017,4.148 -1.511,4.753 -2.006,5.357 -2.61,5.833 -3.325,6.182 -4.039,6.529 -4.89,6.703 -5.879,6.703 -6.905,6.703 -7.802,6.511 -8.572,6.127 -9.341,5.742 -9.992,5.238 -10.522,4.615 -11.054,3.992 -11.466,3.278 -11.758,2.473 -12.052,1.666 -12.253,0.842 -12.363,0 Z m -19.286,-2.967 c 0,2.528 0.375,4.743 1.126,6.648 0.751,1.905 1.749,3.489 2.995,4.753 1.245,1.264 2.674,2.216 4.286,2.857 1.611,0.641 3.26,0.962 4.945,0.962 3.956,0 7.041,-1.228 9.258,-3.681 C 5.54,6.117 6.648,2.454 6.648,-2.418 6.648,-2.784 6.639,-3.196 6.621,-3.654 6.602,-4.112 6.574,-4.524 6.538,-4.89 h -18.956 c 0.183,-2.308 0.998,-4.093 2.445,-5.357 1.447,-1.264 3.544,-1.896 6.292,-1.896 1.611,0 3.085,0.146 4.423,0.44 1.336,0.293 2.39,0.604 3.159,0.934 l 0.879,-5.439 c -0.367,-0.184 -0.87,-0.377 -1.511,-0.578 -0.641,-0.201 -1.373,-0.384 -2.198,-0.549 -0.824,-0.165 -1.712,-0.302 -2.664,-0.412 -0.954,-0.11 -1.923,-0.165 -2.913,-0.165 -2.527,0 -4.725,0.376 -6.593,1.126 -1.868,0.751 -3.406,1.795 -4.615,3.132 -1.209,1.337 -2.107,2.913 -2.693,4.726 -0.586,1.813 -0.879,3.799 -0.879,5.961"
       style="fill:#111113;fill-opacity:1;fill-rule:nonzero;stroke:none"
       transform="matrix(0.35277776,0,0,-0.35277776,215.1201,184.15294)"
       clip-path="url(#clipPath128)" />
    <path
       id="path129"
       d="m 0,0 v -3.242 h -21.648 v 38.077 h 3.736 V 0 Z"
       style="fill:#111113;fill-opacity:1;fill-rule:nonzero;stroke:none"
       transform="matrix(0.35277776,0,0,-0.35277776,226.19357,188.95989)"
       clip-path="url(#clipPath130)" />
    <path
       id="path131"
       d="m 0,0 c 1.392,0 2.61,0.045 3.654,0.137 1.044,0.091 1.932,0.21 2.665,0.357 v 10 c -0.404,0.183 -1.044,0.376 -1.923,0.578 -0.88,0.2 -2.088,0.301 -3.627,0.301 -0.879,0 -1.795,-0.064 -2.747,-0.192 C -2.931,11.052 -3.81,10.778 -4.615,10.357 -5.421,9.936 -6.081,9.358 -6.593,8.626 -7.106,7.893 -7.363,6.923 -7.363,5.714 c 0,-1.062 0.174,-1.96 0.522,-2.693 0.348,-0.732 0.843,-1.317 1.484,-1.757 0.641,-0.44 1.41,-0.761 2.308,-0.962 C -2.152,0.101 -1.136,0 0,0 m -0.33,26.483 c 1.869,0 3.452,-0.266 4.753,-0.796 1.3,-0.532 2.353,-1.264 3.16,-2.198 C 8.388,22.555 8.974,21.446 9.341,20.165 9.706,18.882 9.89,17.491 9.89,15.989 V -1.923 C 9.524,-2.033 8.992,-2.152 8.297,-2.28 7.601,-2.409 6.794,-2.547 5.879,-2.693 4.963,-2.839 3.947,-2.958 2.83,-3.049 1.712,-3.14 0.568,-3.187 -0.604,-3.187 c -1.503,0 -2.885,0.165 -4.149,0.494 -1.263,0.33 -2.362,0.852 -3.296,1.567 -0.934,0.714 -1.667,1.629 -2.198,2.746 -0.532,1.118 -0.797,2.482 -0.797,4.094 0,1.538 0.293,2.857 0.879,3.957 0.586,1.098 1.41,2.005 2.473,2.719 1.062,0.714 2.325,1.236 3.791,1.566 1.465,0.329 3.058,0.495 4.78,0.495 0.513,0 1.053,-0.028 1.621,-0.083 0.567,-0.055 1.117,-0.129 1.648,-0.22 0.531,-0.092 0.989,-0.184 1.374,-0.274 0.385,-0.092 0.65,-0.175 0.797,-0.248 v 1.759 c 0,0.989 -0.074,1.95 -0.22,2.884 -0.147,0.934 -0.467,1.776 -0.962,2.528 -0.494,0.75 -1.19,1.354 -2.088,1.813 -0.897,0.457 -2.079,0.687 -3.544,0.687 -2.087,0 -3.645,-0.147 -4.669,-0.44 -1.027,-0.294 -1.778,-0.532 -2.253,-0.714 l -0.495,3.132 c 0.622,0.292 1.584,0.567 2.885,0.824 1.299,0.255 2.866,0.384 4.697,0.384"
       style="fill:#111113;fill-opacity:1;fill-rule:nonzero;stroke:none"
       transform="matrix(0.35277776,0,0,-0.35277776,231.31662,189.19251)"
       clip-path="url(#clipPath132)" />
    <path
       id="path133"
       d="m 0,0 c 0.55,-0.185 1.364,-0.358 2.445,-0.522 1.08,-0.165 2.5,-0.248 4.258,-0.248 3.077,0 5.55,0.998 7.418,2.995 1.868,1.995 2.802,4.862 2.802,8.599 0,1.574 -0.165,3.067 -0.495,4.478 -0.329,1.409 -0.861,2.637 -1.593,3.681 -0.733,1.044 -1.695,1.877 -2.885,2.5 -1.19,0.622 -2.664,0.934 -4.423,0.934 C 6.684,22.417 5.879,22.335 5.11,22.17 4.341,22.005 3.626,21.794 2.967,21.538 2.308,21.281 1.731,21.007 1.236,20.714 0.742,20.42 0.33,20.145 0,19.889 Z m 0,23.351 c 0.622,0.476 1.621,0.98 2.994,1.511 1.374,0.531 2.995,0.797 4.863,0.797 2.051,0 3.874,-0.367 5.467,-1.099 1.594,-0.733 2.94,-1.758 4.038,-3.077 1.099,-1.319 1.932,-2.884 2.501,-4.698 0.567,-1.813 0.851,-3.8 0.851,-5.961 0,-2.308 -0.339,-4.378 -1.016,-6.209 -0.678,-1.832 -1.631,-3.389 -2.857,-4.67 -1.228,-1.283 -2.693,-2.263 -4.396,-2.94 -1.703,-0.677 -3.599,-1.016 -5.687,-1.016 -2.527,0 -4.615,0.165 -6.263,0.495 -1.649,0.328 -3.004,0.676 -4.067,1.043 V 34.615 L 0,35.274 Z"
       style="fill:#111113;fill-opacity:1;fill-rule:nonzero;stroke:none"
       transform="matrix(0.35277776,0,0,-0.35277776,237.32126,188.92102)"
       clip-path="url(#clipPath134)" />
    <path
       sodipodi:type="star"
       style="fill:none;fill-opacity:1;stroke:#000000;stroke-width:0.753;stroke-dasharray:none;stroke-opacity:1"
       id="path7"
       inkscape:flatsided="true"
       sodipodi:sides="6"
       sodipodi:cx="186.46895"
       sodipodi:cy="90.057457"
       sodipodi:r1="13.011475"
       sodipodi:r2="11.268268"
       sodipodi:arg1="0.52359878"
       sodipodi:arg2="1.0471976"
       inkscape:rounded="0"
       inkscape:randomized="0"
       d="m 197.73722,96.563194 -11.26827,6.505736 -11.26827,-6.505736 0,-13.011474 11.26827,-6.505738 11.26827,6.505738 z"
       transform="translate(72.754791,73.381197)" />
    <path
       id="path139-4-6-0"
       d="m 0,0 c 2.694,0.645 5.511,1.893 8.118,4.55 1.356,1.382 2.655,3.146 3.851,5.405 0.606,1.143 1.185,2.413 1.731,3.825 6.497,16.789 25.202,10.358 25.202,10.358 C 35.665,24.058 32.161,23.296 28.875,18.857 27.946,17.602 27.033,16.052 26.149,14.141 25.787,13.358 25.43,12.515 25.079,11.605 19.062,-3.944 2.424,-0.581 0,0"
       style="fill:#a30d0e;fill-opacity:1;fill-rule:nonzero;stroke:#000000;stroke-width:0.817643;stroke-dasharray:none;stroke-opacity:1"
       transform="matrix(0.78488406,-0.14757195,-0.14757195,-0.78488406,245.71733,175.93052)"
       clip-path="url(#clipPath140-7-2-4)" />
    <path
       id="path7-4"
       style="fill:none;stroke:#000000;stroke-width:0.753"
       d="m 179.74223,125.36562 -1.80496,-1.0421 v -13.01147 l 11.26827,-6.50574 1.93331,1.1162 m 7.28505,4.20603 2.04991,1.18351 v 13.01147 l -11.26827,6.50574 -2.16362,-1.24916"
       sodipodi:nodetypes="cccccccccc" />
    <path
       id="path139-4-6-0-9"
       d="m 0,0 c 2.694,0.645 5.511,1.893 8.118,4.55 1.356,1.382 2.655,3.146 3.851,5.405 0.606,1.143 1.185,2.413 1.731,3.825 6.497,16.789 25.202,10.358 25.202,10.358 C 35.665,24.058 32.161,23.296 28.875,18.857 27.946,17.602 27.033,16.052 26.149,14.141 25.787,13.358 25.43,12.515 25.079,11.605 19.062,-3.944 2.424,-0.581 0,0"
       style="fill:#a30d0e;fill-opacity:1;fill-rule:nonzero;stroke:#000000;stroke-width:0.817643;stroke-dasharray:none;stroke-opacity:1"
       transform="matrix(0.78488406,-0.14757195,-0.14757195,-0.78488406,175.69913,130.30966)"
       clip-path="url(#clipPath140-7-2-4-6)" />
    <path
       id="path506-2-0-8"
       d="M 0,0 V 6.707 C 2.781,5.289 6.544,3.98 10.471,3.872 c 1.418,0 2.781,0.108 3.926,0.436 2.782,0.654 4.472,2.072 4.472,4.199 0,3.108 -2.236,4.8 -8.235,6.926 -7.198,2.563 -11.016,5.617 -11.016,11.998 0,6.871 5.727,11.015 13.689,11.015 3.926,0 7.689,-0.981 10.034,-1.963 v -6.434 c -2.236,1.254 -5.999,2.345 -9.544,2.345 -4.471,0 -7.471,-1.855 -7.471,-4.854 0,-2.781 2.072,-4.636 8.071,-6.817 C 21.596,18.051 25.522,14.997 25.522,8.779 25.522,1.908 20.287,-2.236 11.507,-2.236 6.98,-2.236 2.727,-1.146 0,0"
       style="fill:#111113;fill-opacity:1;fill-rule:nonzero;stroke:none"
       transform="matrix(0.35277776,0,0,-0.35277776,338.42595,209.81502)"
       clip-path="url(#clipPath507-4-4-5)" />
    <path
       id="path508-1-2-9"
       d="m 0,0 v -14.343 c 0,-1.255 -0.109,-2.345 -0.109,-2.836 1.309,2.29 4.526,5.89 9.652,5.89 6.436,0 9.435,-3.872 9.435,-10.907 v -17.07 h -6.653 v 15.924 c 0,3.163 -0.764,5.999 -4.472,5.999 -4.527,0 -7.744,-3.598 -7.744,-8.398 V -39.266 H -6.544 V 0 Z"
       style="fill:#111113;fill-opacity:1;fill-rule:nonzero;stroke:none"
       transform="matrix(0.35277776,0,0,-0.35277776,350.72008,196.50177)"
       clip-path="url(#clipPath509-8-1-3)" />
    <path
       id="path510-6-4-0"
       d="m 0,0 c -7.472,1.199 -10.635,-0.928 -10.635,-4.036 0,-2.072 1.473,-3.49 3.763,-3.49 C -2.945,-7.526 0,-3.817 0,0 m -15.106,14.015 c 1.526,0.818 5.18,1.964 9.816,1.964 8.071,0 12.052,-3.873 12.052,-10.69 V -11.998 H 0.709 L 0.6,-9.162 C 0.545,-7.908 0.709,-7.09 0.709,-7.09 H 0.6 c -0.492,-1.2 -3.381,-5.617 -8.944,-5.617 -4.854,0 -8.671,2.891 -8.671,8.126 0,6.708 6.598,9.979 17.178,8.507 v 1.036 c 0,3.981 -2.509,5.345 -6.489,5.345 -3.6,0 -7.035,-1.2 -8.78,-2.29 z"
       style="fill:#111113;fill-opacity:1;fill-rule:nonzero;stroke:none"
       transform="matrix(0.35277776,0,0,-0.35277776,364.24505,206.1212)"
       clip-path="url(#clipPath511-4-8-7)" />
    <path
       id="path512-8-8-7"
       d="m 0,0 h 6.108 c 0.055,-1.091 0.109,-2.182 0.109,-3.218 0,-0.927 -0.054,-1.69 0,-1.908 1.691,3.326 4.526,5.835 8.29,5.835 0.817,0 1.526,-0.109 1.69,-0.164 V -5.89 c -0.164,0 -0.763,0.218 -1.635,0.218 -4.691,0 -7.909,-4.744 -7.909,-9.871 V -27.268 H 0 Z"
       style="fill:#111113;fill-opacity:1;fill-rule:nonzero;stroke:none"
       transform="matrix(0.35277776,0,0,-0.35277776,367.74629,200.73442)"
       clip-path="url(#clipPath513-5-4-3)" />
    <path
       id="path514-5-6-8"
       d="m 0,0 c 0,5.071 -3.054,8.671 -7.472,8.671 -3.653,0 -7.525,-2.781 -7.525,-8.671 0,-5.89 3.872,-8.671 7.525,-8.671 C -3.054,-8.671 0,-5.126 0,0 m -21.814,13.634 h 6.108 l 0.109,-2.564 c 0.054,-1.145 -0.164,-1.908 -0.109,-1.908 h 0.109 c 1.309,2.727 5.017,5.181 9.216,5.181 7.145,0 12.707,-5.672 12.707,-14.343 0,-8.78 -5.562,-14.343 -12.543,-14.343 -4.199,0 -7.581,2.237 -8.999,4.744 h -0.108 c 0,0 0.163,-0.762 0.163,-2.235 v -13.798 h -6.653 z"
       style="fill:#111113;fill-opacity:1;fill-rule:nonzero;stroke:none"
       transform="matrix(0.35277776,0,0,-0.35277776,382.17587,205.54412)"
       clip-path="url(#clipPath515-7-7-08)" />
    <path
       id="path516-7-5-1"
       d="M 0,0 C -3.927,0 -6.271,-3.054 -6.599,-6.489 H 6.162 C 6.217,-3.054 4.09,0 0,0 m 12.598,-7.417 c 0,-1.254 -0.164,-2.454 -0.164,-2.944 H -6.599 c 0.163,-4.581 3.436,-7.308 8.453,-7.308 3.818,0 7.798,1.145 9.653,2.29 v -5.835 c -1.908,-1.036 -5.563,-2.127 -10.144,-2.127 -9.052,0 -14.887,5.945 -14.887,14.343 0,8.234 5.944,14.343 13.633,14.343 8.18,0 12.489,-5.999 12.489,-12.762"
       style="fill:#111113;fill-opacity:1;fill-rule:nonzero;stroke:none"
       transform="matrix(0.35277776,0,0,-0.35277776,390.04484,202.36983)"
       clip-path="url(#clipPath517-1-9-0)" />
    <path
       id="path518-6-0-5"
       d="M 0,0 V 39.266 H 3.163 V 2.672 H 20.832 V 0 Z"
       style="fill:#111113;fill-opacity:1;fill-rule:nonzero;stroke:none;stroke-width:1.00063;stroke-dasharray:none"
       transform="matrix(0.35277776,0,0,-0.35277776,424.42783,212.59592)"
       clip-path="url(#clipPath519-2-1-8)" />
    <path
       id="path520-1-9-8"
       d="m 0,0 c -9.762,1.581 -15.542,-1.036 -15.542,-5.944 0,-2.891 2.181,-4.909 5.617,-4.909 C -4.199,-10.853 0,-5.181 0,0 m -16.96,12.925 c 1.526,0.818 5.017,2.072 9.271,2.072 C -0.437,14.997 3,11.452 3,4.636 V -12.925 H 0.109 v 3.708 c -0.054,1.418 0.163,2.4 0.163,2.4 H 0.164 c 0,-0.218 -3.382,-6.762 -10.416,-6.762 -5.018,0 -8.399,3.054 -8.399,7.471 0,6.872 7.417,10.253 18.651,8.562 v 2.072 c 0,5.727 -3.163,7.69 -7.962,7.69 -4.036,0 -7.58,-1.418 -8.998,-2.29 z"
       style="fill:#111113;fill-opacity:1;fill-rule:nonzero;stroke:none"
       transform="matrix(0.35277776,0,0,-0.35277776,439.74218,208.03636)"
       clip-path="url(#clipPath521-6-8-8)" />
    <path
       id="path522-8-0-6"
       d="m 0,0 c 0,-8.017 5.235,-11.507 9.871,-11.507 5.944,0 9.761,5.018 9.761,11.507 0,6.653 -3.817,11.507 -9.761,11.507 C 5.235,11.507 0,8.017 0,0 M -3,25.632 H 0 V 10.253 C 0,8.998 -0.164,8.071 -0.164,8.071 h 0.109 c 1.528,3.163 5.454,6.217 10.144,6.217 7.253,0 12.597,-5.999 12.597,-14.288 0,-8.126 -5.344,-14.288 -12.597,-14.288 -4.745,0 -8.726,3.163 -10.198,6.434 h -0.109 c 0,0 0.163,-0.872 0.163,-2.125 l -0.054,-3.655 H -3 Z"
       style="fill:#111113;fill-opacity:1;fill-rule:nonzero;stroke:none"
       transform="matrix(0.35277776,0,0,-0.35277776,443.60933,207.78622)"
       clip-path="url(#clipPath523-4-5-7)" />
    <path
       style="fill:#111113;fill-opacity:1;stroke:none;stroke-width:0.653;stroke-dasharray:none"
       d="M 413.15275,214.11632 H 514.66301"
       id="path2-1" />
    <path
       style="fill:#111113;fill-opacity:1;stroke:none;stroke-width:0.653;stroke-dasharray:none"
       d="M 411.65903,214.55199 H 511.98678"
       id="path4-2" />
    <path
       style="fill:#111113;fill-opacity:1;stroke:none;stroke-width:0.653;stroke-dasharray:none"
       d="M 410.63196,214.61423 H 513.13803"
       id="path5-4" />
    <path
       id="path7-4-2"
       style="fill:none;stroke:#000000;stroke-width:0.753"
       d="m 399.89207,213.57887 -1.80496,-1.0421 V 199.5253 l 11.26827,-6.50574 1.93331,1.1162 m 7.28505,4.20603 2.04991,1.18351 v 13.01147 l -11.26827,6.50574 -2.16362,-1.24916"
       sodipodi:nodetypes="cccccccccc" />
    <path
       id="path139-4-6-0-9-5"
       d="m 0,0 c 2.694,0.645 5.511,1.893 8.118,4.55 1.356,1.382 2.655,3.146 3.851,5.405 0.606,1.143 1.185,2.413 1.731,3.825 6.497,16.789 25.202,10.358 25.202,10.358 C 35.665,24.058 32.161,23.296 28.875,18.857 27.946,17.602 27.033,16.052 26.149,14.141 25.787,13.358 25.43,12.515 25.079,11.605 19.062,-3.944 2.424,-0.581 0,0"
       style="fill:#a30d0e;fill-opacity:1;fill-rule:nonzero;stroke:#000000;stroke-width:0.817643;stroke-dasharray:none;stroke-opacity:1"
       transform="matrix(0.78488406,-0.14757195,-0.14757195,-0.78488406,395.84897,218.52291)"
       clip-path="url(#clipPath140-7-2-4-6-2)" />
  </g>
</svg>
